<svg width="429" height="103.48" viewBox="0 0 370 89.249" class="css-1j8o68f" xmlns="http://www.w3.org/2000/svg" fill="#a37e4c">
    <path d="M25.01 30.371a1.613 1.613 0 0 0 1.751-1.461c.531-5.871 1.843-10.365 2.66-12.706a62.36 62.36 0 0 1 6.9 5.604 1.613 1.613 0 0 0 2.204-2.356c-4.857-4.544-8.893-6.979-9.063-7.08a1.614 1.614 0 0 0-2.304.732c-.113.256-2.783 6.377-3.61 15.517a1.614 1.614 0 0 0 1.461 1.75z"/>
    <path d="M82.513 61.951c12.271-13.863 12.76-33.123 12.775-33.936a1.613 1.613 0 0 0-1.867-1.622c-.536.085-13.23 2.195-25.076 11.706a1.613 1.613 0 1 0 2.02 2.515c8.477-6.806 17.615-9.63 21.562-10.603-.475 5.23-2.588 19.36-11.829 29.801-7.752 8.756-17.71 12.884-24.045 14.624 4.837-6.229 9.54-18.376 9.54-31.066 0-19.069-13.82-34.24-14.407-34.876-.61-.66-1.758-.66-2.369 0-.59.637-14.409 15.808-14.409 34.877 0 12.596 4.634 24.663 9.433 30.932-6.355-1.816-16.208-5.96-23.76-14.49C10.862 49.398 8.736 35.257 8.254 30.019c3.91.973 12.902 3.79 21.381 10.597a1.613 1.613 0 1 0 2.02-2.515C19.81 28.592 7.289 26.48 6.762 26.395a1.615 1.615 0 0 0-1.87 1.621c.015.813.503 20.341 12.774 34.205 12.092 13.66 30.09 16.68 32.489 16.68s20.061-3.058 32.358-16.95zm-44.879-18.31c0-14.62 9.065-27.327 12.367-31.42 3.304 4.088 12.365 16.842 12.365 31.487 0 18.472-9.77 31.294-12.362 32.37h-.013c-2.594-1.076-12.357-13.973-12.357-32.438z"/>
    <path d="M63.858 21.807a62.487 62.487 0 0 1 6.9-5.603c.815 2.342 2.128 6.835 2.66 12.705a1.613 1.613 0 0 0 3.212-.29c-.827-9.14-3.495-15.26-3.61-15.517a1.613 1.613 0 0 0-2.304-.733c-.17.102-4.205 2.537-9.062 7.08a1.613 1.613 0 0 0-.075 2.28 1.61 1.61 0 0 0 2.28.078zM38.27 79.072c-6.515-2.315-15.76-6.747-22.808-14.708a44.21 44.21 0 0 1-2.58-3.218 1.62 1.62 0 0 0-1.565-.64C5.28 61.502 1.138 63.3.965 63.375a1.613 1.613 0 0 0-.591 2.508c.364.438 9.081 10.773 22.792 14.36 4.774 1.248 8.71 2.08 12.4 2.08.816 0 1.607-.044 2.35-.129a1.613 1.613 0 0 0 .354-3.122zm61.688-14.59a1.612 1.612 0 0 0-.922-1.106c-.174-.075-4.316-1.873-10.352-2.869a1.624 1.624 0 0 0-1.564.64 44.21 44.21 0 0 1-2.58 3.218c-7.05 7.96-16.295 12.392-22.809 14.708a1.613 1.613 0 0 0 .356 3.121c.743.085 1.534.13 2.35.13 3.69 0 7.626-.832 12.4-2.081 13.71-3.587 22.428-13.92 22.793-14.36.322-.389.444-.907.328-1.4z"/>
  <path d="M155.177 12.978c0 6.525-4.042 10.922-12.41 12.837v.142c3.19 1.205 5.39 3.191 7.659 9.929 2.978 8.865 3.546 10.638 5.886 10.638 1.844 0 3.263-1.986 3.05-8.085h.922c.85 8.227-2.27 11.631-5.532 11.631-3.972 0-5.745-2.411-6.88-10.922-1.702-12.624-4.113-12.837-10.567-12.837h-6.808v17.802c0 3.333 1.134 4.397 4.397 4.397h3.191v.922H120v-.922h2.34c3.547 0 4.398-1.064 4.398-4.397V6.099c0-3.334-1.064-4.256-4.397-4.256H120V.921h17.659c10.425 0 17.517 4.114 17.517 12.057zm-24.68 12.411h9.29c9.15 0 11.064-7.234 11.064-12.27 0-4.113-.85-11.276-12.908-11.276h-2.836c-3.263 0-4.61.71-4.61 4.114v19.432zm62.411 8.37h-20l-1.206 3.687c-.993 3.12-1.773 5.39-1.773 7.376 0 2.553 1.49 3.688 4.043 3.688h1.418v.922h-13.404v-.922c3.83-.213 5.32-2.908 7.234-8.369L183.688 0h.993l15.461 43.476c1.49 4.255 3.475 4.964 6.383 5.035v.922h-16.383v-.922h1.986c2.766 0 4.468-1.135 4.468-2.553 0-1.277-.638-3.404-1.631-6.241zm-.284-.923-9.716-27.588-9.716 27.588h19.432zm22.483-26.099V40.07c0 7.022 1.702 8.44 7.092 8.44h.283v.922h-15.531v-.922h.709c4.68 0 6.24-1.348 6.24-8.44V5.32c-2.481-2.837-3.616-3.476-7.233-3.476V.921h8.936l28.014 42.908V10.354c0-6.809-1.631-8.51-7.021-8.51h-.284V.92h15.461v.922h-.567c-4.681 0-6.312 1.986-6.312 8.511v40.213h-1.135zm58.51 42.695c7.092 0 11.277-5.532 11.277-9.716v-5.958c0-3.83-.78-4.326-4.114-4.326h-2.553v-.922h15.461v.922h-.496c-3.405 0-4.752.851-4.752 4.326v16.383h-.497c-.922-2.837-2.056-3.83-3.12-3.83-.993 0-1.702.497-2.695 1.135-2.412 1.49-5.107 2.624-8.51 2.624-10.214 0-19.15-9.716-19.15-24.893 0-16.312 9.504-24.965 18.51-24.965 3.973 0 7.519 1.773 10.356 3.688.78.497 1.489.993 2.127.993.993 0 1.702-1.348 2.482-4.823h.71l.567 18.866h-.922C286.099 6.382 279.575.85 273.05.85c-9.078 0-14.185 8.937-14.185 24.043 0 14.894 5.178 24.539 14.752 24.539zm21.702-.922h2.34c3.263 0 4.398-.496 4.398-4.255V6.099c0-3.83-1.135-4.256-4.397-4.256h-2.34V.921h18.652v.922h-3.546c-3.263 0-4.61.497-4.61 4.256v38.156c0 3.688 1.347 4.255 4.61 4.255h3.546c12.411 0 13.404-5.887 14.61-17.163h.85l-1.276 18.085H295.32v-.922zm38.156 0h2.34c3.263 0 4.398-.71 4.398-4.326V6.17c0-3.688-1.135-4.327-4.397-4.327h-2.34V.921h34.538l.71 17.022h-.71c-.993-12.695-2.27-16.1-13.617-16.1h-5.815c-3.263 0-4.61.639-4.61 4.256v17.66h5.248c6.88 0 7.943-4.327 8.014-10.072h.71V35.39h-.71c-.07-5.886-1.064-10.709-8.014-10.709h-5.248v19.575c0 3.546 1.347 4.255 4.61 4.255h6.666c10.851 0 13.121-5.532 13.972-17.589h.78l-1.205 18.511h-35.32v-.922z" fill="#a37e4c"/>
  <path d="M131.076 71.254h2.281v17.741h-2.28v-8.16h-8.796v8.16h-2.28V71.254h2.28v7.4h8.795v-7.4zm19.258 17.995c-5.07 0-9.1-4.055-9.1-9.124s4.03-9.125 9.1-9.125 9.099 4.055 9.099 9.125-4.03 9.124-9.1 9.124zm0-2.18c3.852 0 6.742-3.016 6.742-6.944s-2.89-6.945-6.742-6.945c-3.878 0-6.767 3.016-6.767 6.945s2.889 6.944 6.767 6.944zm28.077-13.636h-5.17v15.562h-2.281V73.433h-5.196l.152-2.18h12.343zm17.712 13.383.152 2.18h-10.797V71.253h10.29l.177 2.18h-8.186v4.333h5.55v2.18h-5.55v6.869h8.364zm10.031 0h7.503l-.152 2.18h-9.632V71.253h2.281v15.562zm38.414-1.065 2.585 2.99v.254h-2.534l-1.344-1.546a6.868 6.868 0 0 1-4.587 1.8c-3.371 0-5.55-2.078-5.55-4.765 0-2.307 1.47-3.498 2.812-4.512l.482-.38c-1.217-1.394-2.408-2.686-2.408-4.511 0-2.13 1.926-4.08 4.512-4.08 2.534 0 4.334 1.697 4.334 3.725 0 2.332-1.597 3.624-2.738 4.537l-.71.557 3.575 4.132c.1-.355.152-.71.152-1.065 0-.887-.127-1.698-.254-2.205l2.053-.304c.101.405.304 1.343.304 2.636a5.765 5.765 0 0 1-.684 2.737zm-6.514-7.502.05.05.584-.456c1.166-.887 2.027-1.622 2.027-2.635 0-1.065-.81-2.206-2.18-2.206-1.216 0-2.356.862-2.356 2.206 0 1.241 1.267 2.331 1.875 3.041zm.456 8.896c1.166 0 2.408-.532 3.295-1.368l-4.055-4.664-.253.177c-1.141.913-2.13 1.75-2.13 3.194 0 1.318 1.242 2.661 3.143 2.661zm27.566 0c1.115 1.04 3.422 2.104 5.728 2.104 3.548 0 5.804-1.825 5.804-4.689 0-2.332-1.115-3.7-4.968-5.88-2.94-1.698-3.65-2.256-3.65-3.371 0-1.191 1.116-2.13 2.992-2.13 1.09 0 2.534.482 3.37 1.015l1.217-1.825c-1.191-.786-3.067-1.369-4.562-1.369-3.27 0-5.45 1.876-5.45 4.334 0 2.18 1.09 3.27 4.436 5.095 2.965 1.622 4.182 2.813 4.182 4.106 0 1.52-1.318 2.433-3.37 2.433-1.775 0-3.55-.837-4.436-1.648zm25.847-15.891c4.157 0 6.109 3.142 6.109 6.463s-1.952 6.463-6.109 6.463h-4.435v4.815h-2.281V71.254h6.716zM291.822 82c2.332 0 3.878-1.8 3.878-4.283s-1.546-4.284-3.878-4.284h-4.334V82h4.334zm25.746 6.995-1.546-3.599h-7.908l-1.546 3.6h-2.433L311.94 71h.254L320 88.995h-2.433zm-8.542-5.728h6.083l-3.041-7.02z" fill="#fff"/>
</svg>
